# xmcd
#
# Track frame offsets:
#	150
#	13771
#	28228
#	40398
#	55484
#	71461
#	87251
#	104728
#	120391
#	132764
#	148455
#	161731
#	174412
#	186186
#	201711
#	215881
#	230666
#	243666
#	260048
#	272049
#	288032
#	305830
#	317821
#
# Disc length: 4378 seconds
#
# Revision: 0
# Processed by: cddbd v1.5.2PL0 Copyright (c) Steve Scherf et al.
# Submitted via: EasyCDDAExtractor 10.0.2.1
#
DISCID=78111817
DTITLE=Various Artist - Ready Records Almost Home
DYEAR=2006
DGENRE=Gospel
TTITLE0=Marvin Morrow - Judas Kissed The Door To Heaven
TTITLE1=Morgan and Morgan - It Just Dawned On Me
TTITLE2=Donnie Sumner - Living With Heaven In Mind
TTITLE3=Anne Brehm - He Held On
TTITLE4=Kim Golembeski - Carry Me A While
TTITLE5=Pat Cole - I,m Almost Home
TTITLE6=Charley Kyles - Ticket Out Of Here
TTITLE7=Evelyn Conner - Precious Memories Still Momeries
TTITLE8=The Floridians - It'll Be Joy
TTITLE9=Twice Born - Can We Talk
TTITLE10=Bill Townsend - Little Bitty Sin
TTITLE11=The Calhoun Twins - Summer Comes On Sunday
TTITLE12=Curtis Andrew9 - I'm Ready Anytime
TTITLE13=Carol Decker - Working On A Building
TTITLE14=Martha Welch - Undying Love
TTITLE15=Siara Sol - Holding On
TTITLE16=Lin Butler - Gospel Train
TTITLE17=Peter Walker And Friends - Just To Purchase A Pardon
TTITLE18=Earl and Charlene Montgomery - Hallelujah Weekend
TTITLE19=Fargo  - Where The Roses  Never End
TTITLE20=Marvell - Run Through The Rain
TTITLE21=Buddy Durrett - Jesus Charnged Me From The Inside Out
TTITLE22=Jack Hodges - Gloryland Highway
EXTD=
EXTT0=
EXTT1=
EXTT2=
EXTT3=
EXTT4=
EXTT5=
EXTT6=
EXTT7=
EXTT8=
EXTT9=
EXTT10=
EXTT11=
EXTT12=
EXTT13=
EXTT14=
EXTT15=
EXTT16=
EXTT17=
EXTT18=
EXTT19=
EXTT20=
EXTT21=
EXTT22=
PLAYORDER=
